<?xml version="1.0" standalone="no"?>
<!DOCTYPE svg PUBLIC "-//W3C//DTD SVG 20010904//EN"
 "http://www.w3.org/TR/2001/REC-SVG-20010904/DTD/svg10.dtd">
<svg version="1.0" xmlns="http://www.w3.org/2000/svg"
 width="433.000000pt" height="577.000000pt" viewBox="0 0 433.000000 577.000000"
 preserveAspectRatio="xMidYMid meet">

<g transform="translate(0.000000,577.000000) scale(0.100000,-0.100000)"
fill="#000000" stroke="none">
<path d="M2035 5498 c-66 -61 -121 -117 -123 -124 -5 -21 80 -278 97 -291 10
-9 58 -13 156 -13 l141 0 21 53 c12 28 36 98 54 154 l33 101 -80 75 c-122 115
-169 156 -174 156 -3 0 -59 -50 -125 -111z m243 -92 c23 -22 42 -49 42 -61 0
-11 -12 -59 -27 -107 l-28 -88 -106 0 -106 0 -16 43 c-28 74 -47 137 -47 152
0 14 66 80 134 134 l39 32 36 -33 c20 -18 55 -51 79 -72z"/>
<path d="M2025 4961 c-3 -6 -7 -489 -5 -668 0 -19 5 -23 35 -23 l35 0 0 310 0
311 68 -3 67 -3 -3 -307 -4 -308 35 0 c28 0 36 5 41 23 3 12 6 167 6 345 l0
322 -107 1 c-60 0 -120 2 -135 4 -15 2 -30 0 -33 -4z"/>
<path d="M270 3523 c0 -549 5 -1065 10 -1148 27 -427 185 -819 479 -1185 143
-178 424 -443 666 -626 187 -142 699 -474 730 -474 30 0 502 311 732 482 157
115 377 304 485 415 325 333 538 704 616 1073 11 52 26 118 33 145 9 38 13
323 16 1183 l4 1132 -796 0 -795 0 0 -50 0 -50 733 0 c403 0 738 -4 746 -9 12
-8 13 -163 8 -1012 -4 -637 -10 -1041 -17 -1104 -76 -677 -492 -1238 -1355
-1827 -192 -131 -406 -260 -421 -254 -22 9 -236 144 -375 238 -589 397 -1000
820 -1200 1238 -101 210 -161 437 -180 685 -6 78 -9 516 -7 1085 l3 955 737 3
738 2 0 50 0 50 -795 0 -795 0 0 -997z"/>
<path d="M2009 4163 c-15 -2 -45 -22 -68 -43 -23 -22 -50 -44 -60 -50 -12 -6
-97 -10 -203 -10 l-184 0 -53 40 c-45 34 -56 38 -74 28 -59 -30 -207 -162
-207 -184 0 -18 178 -183 205 -190 33 -8 58 2 106 42 l41 34 191 0 c218 -1
273 -8 299 -40 17 -21 18 -94 18 -1438 l0 -1415 31 -49 c17 -26 33 -48 35 -48
7 0 4 2983 -3 3008 -3 12 -13 27 -22 32 -10 5 -144 10 -298 11 l-281 2 -43
-32 c-24 -17 -50 -31 -59 -31 -17 0 -120 99 -120 116 0 10 77 79 108 98 7 4
31 -5 59 -23 l46 -31 213 0 213 0 60 50 60 50 143 0 144 0 49 -51 50 -50 221
3 220 3 33 28 c18 15 40 27 49 27 19 0 122 -96 122 -113 0 -15 -101 -106 -118
-107 -7 0 -33 14 -57 30 l-44 30 -284 0 c-264 0 -285 -1 -301 -19 -15 -17 -17
-133 -23 -1526 -4 -1004 -3 -1506 4 -1502 5 3 21 23 35 44 l26 38 5 1418 c6
1568 1 1461 69 1471 18 3 124 7 235 10 l203 5 45 -39 c59 -51 78 -56 117 -31
40 25 188 172 188 186 0 30 -188 185 -223 185 -12 0 -44 -16 -71 -35 l-50 -35
-182 0 -182 0 -43 41 c-24 22 -50 44 -58 48 -18 10 -292 21 -332 14z"/>
<path d="M1850 3200 c0 -557 5 -530 -80 -437 -27 28 -74 79 -104 112 l-56 60
0 171 0 171 30 38 c41 52 41 105 1 146 -47 47 -119 35 -147 -25 -23 -47 -12
-99 27 -127 l30 -21 -1 -161 c-1 -89 -1 -175 0 -192 0 -20 12 -43 38 -71 20
-22 69 -75 107 -118 39 -42 89 -97 113 -121 l42 -43 0 -477 c-1 -462 -1 -476
-20 -473 -10 2 -62 45 -114 96 l-96 93 0 202 0 202 -145 150 -144 150 -1 136
c0 133 1 137 26 164 37 40 47 72 34 111 -14 42 -44 64 -88 64 -65 0 -101 -34
-102 -96 0 -33 6 -46 33 -72 l34 -33 -5 -124 c-2 -68 -2 -135 2 -149 3 -14 71
-92 151 -173 l144 -148 1 -201 0 -201 145 -151 145 -151 0 -324 0 -324 98
-139 c135 -193 128 -183 168 -243 40 -61 39 -61 100 29 77 116 170 247 187
265 10 11 28 35 39 53 20 32 21 47 19 310 -2 394 -10 360 119 495 59 62 121
128 138 148 l32 37 0 191 0 192 53 56 c28 31 96 101 149 157 l97 101 1 145 0
144 33 34 c26 27 32 41 32 77 0 57 -27 85 -87 92 -61 7 -98 -24 -105 -87 -4
-41 -1 -49 31 -83 l36 -38 0 -107 c0 -134 -7 -157 -62 -212 -24 -25 -88 -91
-141 -147 l-97 -102 0 -198 0 -198 -102 -103 c-72 -73 -105 -99 -112 -92 -8 8
-10 155 -7 478 l3 467 68 80 c38 44 79 91 92 105 13 13 47 52 76 85 l52 60 0
193 0 194 25 20 c50 39 49 118 -2 158 -47 37 -111 23 -138 -30 -26 -50 -19
-88 20 -124 l35 -32 0 -177 0 -176 -92 -103 c-50 -57 -96 -106 -102 -110 -37
-26 -37 -22 -34 482 l3 491 -35 -3 -35 -3 -5 -1405 -5 -1405 -113 -160 c-62
-88 -119 -161 -126 -163 -6 -1 -25 17 -42 40 -51 73 -140 201 -168 242 l-26
39 0 1408 0 1409 -35 0 -35 0 0 -490z m-246 227 c12 -9 17 -23 14 -42 -3 -27
-7 -30 -40 -33 -33 -3 -38 0 -44 23 -4 18 -1 32 11 45 21 23 35 25 59 7z
m1159 -8 c16 -26 1 -66 -27 -71 -30 -6 -41 0 -50 29 -16 49 50 85 77 42z
m-1435 -481 c7 -7 12 -21 12 -33 0 -47 -62 -63 -81 -21 -22 47 33 90 69 54z
m1728 -34 c1 -32 -10 -44 -43 -44 -29 0 -47 33 -33 59 22 41 74 31 76 -15z"/>
<path d="M1124 2166 c-40 -18 -61 -72 -45 -117 11 -33 34 -59 50 -59 6 0 11
-13 11 -29 0 -63 13 -92 69 -149 218 -223 514 -523 522 -528 5 -3 9 14 9 38
-1 43 -3 45 -265 312 -295 302 -305 316 -247 366 57 48 50 140 -14 166 -41 17
-50 17 -90 0z m71 -46 c15 0 25 -32 18 -60 -8 -29 -49 -37 -73 -15 -11 10 -20
23 -20 29 0 22 32 57 47 52 8 -3 20 -6 28 -6z"/>
<path d="M3114 2173 c-70 -14 -90 -116 -34 -173 27 -27 30 -36 24 -68 -5 -31
-28 -59 -132 -163 -70 -69 -189 -188 -264 -265 l-138 -141 0 -49 0 -49 148
150 c81 83 213 218 294 300 l147 150 5 54 c4 45 10 58 38 81 29 25 33 33 33
79 0 37 -5 55 -20 70 -21 20 -66 31 -101 24z m70 -79 c5 -18 2 -32 -10 -45
-23 -26 -50 -24 -69 5 -24 36 -5 66 39 66 28 0 35 -4 40 -26z"/>
</g>
</svg>
