<?xml version="1.0" standalone="no"?>
<!DOCTYPE svg PUBLIC "-//W3C//DTD SVG 20010904//EN"
 "http://www.w3.org/TR/2001/REC-SVG-20010904/DTD/svg10.dtd">
<svg version="1.0" xmlns="http://www.w3.org/2000/svg"
 width="500.000000pt" height="500.000000pt" viewBox="0 0 500.000000 500.000000"
 preserveAspectRatio="xMidYMid meet">

<g transform="translate(0.000000,500.000000) scale(0.100000,-0.100000)"
fill="#000000" stroke="none">
<path d="M2427 4556 l-68 -63 26 -80 c14 -46 32 -84 41 -87 20 -8 128 -8 148
0 8 3 27 42 42 87 l27 81 -67 63 c-36 35 -70 63 -74 63 -4 0 -38 -29 -75 -64z
m162 -82 c1 -11 -6 -41 -15 -67 l-16 -47 -54 0 c-48 0 -55 3 -67 28 -8 15 -17
43 -21 63 -6 35 -3 40 40 78 l47 41 42 -38 c24 -20 44 -46 44 -58z"/>
<path d="M2428 4264 c-5 -4 -8 -92 -8 -195 0 -162 2 -188 16 -193 34 -13 37 4
31 175 -6 180 -7 178 45 171 l29 -4 -3 -169 -3 -169 23 0 22 0 0 190 c0 174
-1 190 -17 190 -10 1 -43 3 -73 6 -30 3 -58 2 -62 -2z"/>
<path d="M1452 3373 l4 -648 26 -95 c81 -298 239 -518 558 -776 113 -91 435
-304 461 -304 19 0 383 246 485 328 321 259 493 521 550 837 11 64 14 205 14
693 l0 612 -427 0 c-236 0 -433 -4 -440 -8 -6 -4 -13 -16 -15 -27 -3 -20 3
-20 410 -23 l412 -2 0 -573 c0 -619 -4 -670 -55 -823 -92 -275 -313 -531 -680
-785 -110 -76 -243 -159 -255 -159 -31 0 -378 240 -506 350 -199 172 -364 398
-428 590 -52 157 -57 225 -54 835 l3 560 408 3 407 2 0 24 c0 20 -6 24 -46 30
-26 3 -224 6 -441 6 l-394 0 3 -647z"/>
<path d="M2380 3791 c-34 -30 -37 -30 -146 -31 -98 0 -113 2 -129 20 -10 11
-25 20 -33 20 -20 0 -122 -88 -122 -105 0 -19 98 -105 120 -105 9 0 29 9 43
20 22 18 40 20 154 20 70 0 133 -4 140 -8 9 -6 13 -193 15 -807 3 -743 4 -802
21 -825 9 -13 17 -20 17 -15 5 238 -3 1672 -10 1679 -5 5 -78 11 -161 12 -138
3 -156 2 -187 -16 l-33 -20 -35 26 c-19 15 -34 32 -34 38 0 7 14 23 32 36 30
22 33 23 61 7 22 -13 54 -17 138 -17 112 0 149 9 178 44 10 12 33 16 90 16 70
0 79 -2 111 -30 34 -30 37 -30 151 -30 86 0 120 4 135 15 28 22 47 18 78 -14
28 -29 28 -30 10 -48 -44 -43 -50 -45 -83 -25 -28 17 -49 19 -187 16 -86 -1
-160 -6 -164 -11 -10 -11 -23 -1683 -13 -1683 30 0 32 49 39 835 6 665 10 799
21 811 11 11 45 14 140 14 119 0 127 -1 155 -25 16 -14 33 -25 38 -25 14 0
120 101 120 115 0 16 -102 105 -120 105 -6 0 -23 -9 -37 -20 -22 -17 -41 -20
-128 -20 -98 0 -104 1 -138 29 -33 26 -44 29 -124 30 -84 2 -89 1 -123 -28z"/>
<path d="M2336 3553 c-3 -4 -6 -127 -6 -275 0 -151 -4 -268 -9 -268 -5 0 -34
26 -65 58 l-56 57 0 106 c0 83 3 109 15 119 37 31 9 90 -43 90 -42 0 -62 -60
-32 -90 17 -17 20 -34 20 -125 0 -117 -7 -103 118 -235 l52 -55 0 -262 c0
-208 -3 -263 -13 -263 -7 0 -36 24 -65 53 l-52 53 0 110 0 110 -80 85 -79 84
-1 73 c0 60 4 78 22 103 21 28 21 32 7 57 -9 16 -25 28 -41 30 -49 6 -76 -51
-42 -89 11 -12 16 -42 18 -104 l3 -87 82 -82 81 -81 0 -111 0 -110 80 -86 80
-86 0 -177 0 -177 62 -92 c82 -121 100 -146 109 -146 3 0 19 19 35 43 16 23
53 74 81 114 l53 72 0 181 0 182 80 86 80 86 0 109 0 108 79 82 80 82 7 85 c5
60 12 92 25 109 24 30 24 42 -1 69 -24 25 -62 29 -80 7 -17 -21 -16 -62 4 -84
12 -13 16 -37 16 -90 l0 -73 -80 -85 -80 -84 0 -112 0 -113 -60 -59 c-45 -44
-61 -55 -65 -43 -3 8 -5 129 -3 269 l3 255 83 92 82 92 0 109 c0 84 3 111 15
121 18 15 19 51 3 72 -35 42 -88 19 -88 -38 0 -22 6 -37 15 -40 12 -5 15 -27
15 -113 l-1 -106 -52 -58 c-29 -31 -58 -57 -65 -57 -11 0 -12 51 -6 270 l6
270 -21 0 c-21 0 -21 0 -21 -372 0 -205 -3 -560 -7 -788 l-6 -415 -55 -78
c-54 -77 -82 -102 -90 -79 -2 6 -28 45 -58 87 l-54 75 0 784 c0 663 -2 785
-14 789 -8 3 -17 3 -20 0z m-138 -165 c-4 -27 -33 -36 -42 -13 -8 22 1 35 25
35 15 0 20 -6 17 -22z m642 2 c0 -24 -26 -38 -42 -22 -16 16 -2 42 22 42 13 0
20 -7 20 -20z m-797 -256 c10 -10 -12 -44 -28 -44 -9 0 -15 10 -15 25 0 18 5
25 18 25 10 0 22 -3 25 -6z m952 -19 c0 -11 -8 -21 -17 -23 -14 -3 -18 3 -18
23 0 20 4 26 18 23 9 -2 17 -12 17 -23z"/>
<path d="M1912 2698 c-18 -18 -14 -62 8 -88 11 -13 20 -34 20 -47 0 -17 45
-69 165 -191 138 -140 165 -163 165 -142 0 19 -37 63 -150 178 -150 152 -175
190 -135 206 23 8 20 73 -4 86 -26 13 -54 13 -69 -2z m62 -27 c10 -16 -5 -41
-24 -41 -19 0 -34 25 -24 41 3 5 14 9 24 9 10 0 21 -4 24 -9z"/>
<path d="M3018 2699 c-22 -13 -24 -72 -3 -89 32 -26 14 -52 -135 -203 -113
-115 -150 -158 -150 -177 1 -21 27 2 165 142 138 141 165 173 165 198 0 16 6
33 14 37 7 4 19 18 25 31 25 48 -32 90 -81 61z m57 -29 c8 -13 -13 -40 -30
-40 -15 0 -28 27 -19 41 7 12 41 11 49 -1z"/>
<path d="M1343 1378 c-12 -6 -27 -23 -34 -39 -19 -47 3 -85 69 -117 64 -31 82
-53 66 -79 -8 -12 -24 -18 -50 -18 -31 0 -41 5 -49 23 -5 12 -18 22 -27 22
-36 0 -13 -52 34 -76 61 -31 138 11 138 76 0 33 -25 57 -93 90 -61 29 -73 59
-34 85 20 13 29 14 51 4 14 -7 26 -18 26 -26 0 -7 9 -13 20 -13 35 0 21 44
-21 65 -32 17 -65 18 -96 3z"/>
<path d="M3094 1380 c-44 -17 -56 -55 -52 -157 3 -85 5 -97 27 -114 25 -21 81
-25 112 -9 33 18 49 64 49 140 0 85 -17 124 -61 139 -37 13 -46 13 -75 1z m71
-36 c17 -13 20 -27 20 -103 0 -96 -11 -121 -51 -121 -38 0 -54 35 -54 122 0
65 3 81 20 98 24 24 38 25 65 4z"/>
<path d="M3588 1383 c-16 -4 -18 -20 -18 -149 l0 -144 66 0 c57 0 65 2 62 18
-3 13 -13 17 -46 17 l-42 0 0 48 c0 43 2 47 24 47 36 0 55 10 49 26 -3 8 -19
14 -38 14 -30 0 -33 3 -39 35 -9 48 -2 55 50 55 41 0 61 15 32 25 -26 8 -84
12 -100 8z"/>
<path d="M1540 1235 l0 -145 80 0 c63 0 80 3 80 14 0 11 -15 16 -52 18 l-53 3
-3 48 c-3 47 -3 47 30 48 18 1 37 1 42 0 12 -3 26 21 20 31 -3 4 -25 8 -50 8
l-44 0 0 45 0 45 55 0 c42 0 55 3 55 15 0 12 -16 15 -80 15 l-80 0 0 -145z"/>
<path d="M1760 1235 c0 -138 1 -145 20 -145 19 0 20 7 20 90 0 50 4 90 9 90 8
0 15 -19 53 -142 13 -45 31 -49 46 -10 20 52 42 123 42 137 0 8 5 15 10 15 6
0 10 -37 10 -90 0 -90 0 -90 25 -90 l26 0 -3 143 -3 142 -31 3 -31 3 -28 -95
c-16 -53 -32 -96 -37 -96 -11 0 -22 28 -48 118 -20 68 -22 72 -50 72 l-30 0 0
-145z"/>
<path d="M2080 1235 c0 -138 1 -145 20 -145 19 0 20 7 20 145 0 138 -1 145
-20 145 -19 0 -20 -7 -20 -145z"/>
<path d="M2196 1372 c-3 -4 -4 -70 -3 -145 l2 -137 78 0 c59 0 78 3 75 13 -3
7 -26 13 -54 15 -27 2 -52 9 -56 15 -4 7 -8 65 -8 130 0 95 -3 117 -14 117 -8
0 -17 -4 -20 -8z"/>
<path d="M2400 1235 l0 -145 75 0 c59 0 75 3 75 14 0 11 -15 16 -52 18 l-53 3
-3 128 c-2 119 -4 127 -22 127 -19 0 -20 -7 -20 -145z"/>
<path d="M2600 1235 l0 -145 80 0 c63 0 80 3 80 15 0 10 -15 15 -57 17 l-58 3
0 45 0 45 48 3 c39 3 47 6 47 23 0 18 -6 20 -47 18 l-48 -3 0 44 0 45 52 3
c33 2 53 8 57 17 4 12 -9 15 -74 15 l-80 0 0 -145z"/>
<path d="M2818 1283 c-5 -151 0 -195 20 -191 13 2 18 16 20 61 3 48 6 57 22
57 13 0 27 -17 46 -60 22 -49 31 -60 51 -60 l23 0 -25 50 c-29 58 -30 68 -9
91 27 30 29 90 4 122 -19 24 -28 27 -85 27 l-64 0 -3 -97z m112 47 c35 -35 15
-84 -37 -88 l-33 -4 0 56 c0 53 1 56 25 56 14 0 34 -9 45 -20z"/>
<path d="M3350 1235 l0 -145 55 0 c46 0 60 4 80 25 23 22 25 32 25 115 0 87
-9 126 -34 142 -6 4 -37 8 -68 8 l-58 0 0 -145z m109 101 c8 -9 11 -46 9 -102
-3 -82 -5 -89 -27 -101 -17 -8 -30 -9 -43 -2 -17 9 -19 22 -17 107 1 53 3 100
6 105 7 12 60 8 72 -7z"/>
<path d="M1037 949 c-59 -34 -62 -239 -5 -270 35 -19 98 -13 124 12 13 12 24
28 24 36 0 20 -38 16 -49 -6 -14 -25 -45 -32 -70 -14 -19 12 -21 24 -21 101 1
94 12 122 49 122 11 0 26 -9 33 -20 16 -26 60 -28 51 -2 -13 37 -36 52 -77 52
-23 0 -49 -5 -59 -11z"/>
<path d="M1243 953 c-10 -3 -13 -42 -13 -144 l0 -139 24 0 c24 0 24 1 25 103
1 105 -6 188 -18 186 -3 0 -12 -3 -18 -6z"/>
<path d="M1340 816 l0 -146 70 0 c57 0 74 4 90 20 25 25 27 86 3 112 -14 16
-15 23 -5 38 17 28 15 78 -4 97 -10 10 -41 18 -85 21 l-69 5 0 -147z m118 100
c16 -9 15 -59 0 -74 -7 -7 -24 -12 -39 -12 -23 0 -27 5 -31 35 -2 19 0 41 4
49 8 14 45 15 66 2z m10 -128 c32 -32 1 -88 -49 -88 -28 0 -29 1 -29 50 0 50
0 50 33 50 18 0 38 -5 45 -12z"/>
<path d="M1579 946 c-4 -35 -5 -235 -1 -253 4 -22 9 -23 84 -23 59 0 79 3 76
13 -3 7 -27 13 -62 15 l-57 3 3 47 3 47 43 3 c28 2 42 8 42 18 0 10 -12 14
-44 14 -40 0 -44 2 -48 28 -8 55 -1 62 58 62 47 0 54 2 54 20 0 18 -6 20 -75
19 -48 -1 -75 -5 -76 -13z"/>
<path d="M1790 815 c0 -137 1 -145 19 -145 17 0 20 8 23 53 3 45 6 52 26 55
19 3 26 -6 47 -52 20 -46 29 -56 49 -56 l25 0 -30 57 c-29 56 -29 56 -10 77
25 27 34 76 22 109 -11 29 -59 47 -128 47 l-43 0 0 -145z m124 89 c16 -16 15
-59 -2 -76 -5 -5 -25 -8 -43 -6 -27 2 -35 8 -37 27 -7 46 6 71 37 71 16 0 37
-7 45 -16z"/>
<path d="M2051 943 c-11 -10 -24 -33 -27 -50 -5 -28 -2 -37 24 -61 17 -16 45
-33 64 -38 63 -18 70 -94 8 -94 -38 0 -60 9 -60 26 0 8 -9 14 -21 14 -15 0
-19 -4 -15 -16 3 -9 6 -20 6 -25 0 -6 16 -17 36 -25 61 -25 128 -4 139 44 11
51 -9 81 -75 110 -66 29 -81 53 -54 83 22 25 60 24 76 -1 15 -23 48 -27 48 -6
0 46 -107 74 -149 39z"/>
<path d="M2260 815 l0 -145 80 0 c63 0 80 3 80 15 0 10 -15 15 -57 17 l-58 3
0 45 0 45 48 5 c26 3 47 10 47 15 0 6 -21 12 -47 15 l-48 5 0 40 0 40 53 3
c44 3 52 6 52 23 0 17 -7 19 -75 19 l-75 0 0 -145z"/>
<path d="M2512 950 c-57 -23 -69 -204 -16 -257 20 -20 32 -23 93 -21 l69 2 -1
71 -2 70 -42 3 c-33 2 -43 0 -43 -12 0 -8 10 -16 23 -18 50 -7 24 -88 -28 -88
-43 0 -55 24 -55 114 0 70 3 86 20 101 24 22 70 13 77 -16 3 -11 12 -19 21
-17 26 5 25 26 -2 53 -26 26 -70 32 -114 15z"/>
<path d="M2720 837 c0 -84 4 -129 13 -141 18 -24 76 -35 118 -22 49 16 59 45
59 167 0 105 -4 119 -36 119 -2 0 -4 -47 -4 -104 0 -132 -8 -156 -53 -156 -52
0 -57 11 -57 142 0 111 -1 118 -20 118 -19 0 -20 -7 -20 -123z"/>
<path d="M2970 816 c0 -139 1 -146 20 -146 20 0 21 4 24 73 3 67 50 46 77 -35
9 -30 17 -38 36 -38 29 0 29 0 -3 61 l-25 51 21 23 c11 12 23 38 27 58 5 31 1
40 -23 65 -25 25 -38 29 -91 31 l-63 2 0 -145z m114 98 c20 -8 21 -67 2 -83
-8 -7 -27 -11 -43 -9 -25 3 -28 7 -29 43 -1 22 0 43 3 48 5 9 45 9 67 1z"/>
<path d="M3223 948 c-4 -7 -9 -73 -11 -145 l-4 -133 26 0 26 0 0 123 c0 123
-6 167 -21 167 -4 0 -11 -6 -16 -12z"/>
<path d="M3327 953 c-4 -3 -7 -69 -7 -145 l0 -138 64 0 c92 0 116 22 123 110
3 36 0 84 -6 108 -10 34 -18 45 -48 57 -36 15 -114 20 -126 8z m128 -63 c18
-34 20 -119 3 -154 -7 -18 -22 -28 -45 -32 -19 -4 -36 -4 -39 -1 -4 4 -8 173
-4 212 0 3 16 5 35 5 28 0 37 -5 50 -30z"/>
<path d="M3616 913 c-8 -27 -24 -84 -36 -128 -12 -44 -24 -88 -26 -97 -4 -13
0 -18 15 -18 15 0 23 9 29 32 9 36 26 43 77 34 27 -5 35 -13 40 -36 5 -21 13
-30 27 -30 23 0 24 -8 -20 157 -35 131 -36 133 -67 133 -19 0 -26 -9 -39 -47z
m63 -64 c17 -76 16 -79 -25 -79 -36 0 -36 1 -30 32 14 69 27 108 36 103 4 -3
13 -28 19 -56z"/>
<path d="M3818 815 l-3 -145 62 0 c51 0 67 4 90 24 25 22 28 30 29 97 2 104
-9 137 -51 155 -19 8 -55 14 -79 14 l-45 0 -3 -145z m129 75 c7 -14 13 -51 13
-83 0 -49 -4 -62 -25 -83 -16 -16 -34 -24 -48 -22 -21 3 -22 8 -25 97 -1 52 0
101 3 108 9 24 68 12 82 -17z"/>
</g>
</svg>
